<?xml version="1.0" standalone="no"?>
<!DOCTYPE svg PUBLIC "-//W3C//DTD SVG 20010904//EN"
 "http://www.w3.org/TR/2001/REC-SVG-20010904/DTD/svg10.dtd">
<svg version="1.0" xmlns="http://www.w3.org/2000/svg"
 width="520.000000pt" height="86.000000pt" viewBox="0 0 520.000000 86.000000"
 preserveAspectRatio="xMidYMid meet">

<g transform="translate(0.000000,86.000000) scale(0.100000,-0.100000)"
fill="#000000" stroke="none">
<path d="M4685 638 c-85 -30 -139 -106 -139 -199 -1 -46 5 -65 31 -108 l32
-51 -2186 0 -2186 0 23 -25 23 -25 2239 0 c1674 0 2251 3 2286 12 82 20 152
111 152 198 0 139 -145 243 -275 198z m107 -155 c39 -35 11 -103 -43 -103 -30
0 -59 31 -59 64 0 48 64 73 102 39z"/>
<path d="M4385 610 c-3 -5 -1 -10 4 -10 6 0 11 5 11 10 0 6 -2 10 -4 10 -3 0
-8 -4 -11 -10z"/>
<path d="M270 450 l0 -110 25 0 c23 0 25 4 25 45 l0 45 45 0 45 0 0 -45 c0
-41 2 -45 25 -45 l25 0 0 110 0 110 -25 0 c-23 0 -25 -4 -25 -45 l0 -45 -45 0
-45 0 0 45 c0 41 -2 45 -25 45 l-25 0 0 -110z"/>
<path d="M510 450 c0 -103 1 -110 20 -110 19 0 20 7 20 110 0 103 -1 110 -20
110 -19 0 -20 -7 -20 -110z"/>
<path d="M600 449 l0 -111 65 4 c74 5 111 30 121 83 14 78 -44 135 -141 135
l-45 0 0 -111z m120 51 c26 -26 26 -74 -1 -101 -13 -13 -30 -19 -47 -17 -26 3
-27 6 -28 63 -1 33 0 63 3 68 8 14 53 7 73 -13z"/>
<path d="M822 450 c3 -107 3 -110 25 -110 20 0 23 5 23 35 0 28 4 35 19 35 11
0 28 -15 41 -35 15 -25 29 -35 46 -35 l25 0 -22 39 c-20 37 -21 40 -5 62 23
33 20 66 -9 94 -20 21 -34 25 -85 25 l-60 0 2 -110z m113 35 c0 -27 -4 -30
-32 -33 -32 -3 -33 -2 -33 33 0 35 1 36 33 33 28 -3 32 -6 32 -33z"/>
<path d="M1073 540 c-60 -36 -67 -127 -13 -175 29 -27 90 -29 127 -6 87 54 44
201 -59 201 -13 0 -37 -9 -55 -20z m97 -40 c41 -41 14 -120 -40 -120 -54 0
-81 79 -40 120 11 11 29 20 40 20 11 0 29 -9 40 -20z"/>
<path d="M1270 450 l0 -110 25 0 25 0 0 110 0 110 -25 0 -25 0 0 -110z"/>
<path d="M1360 540 c0 -16 8 -19 55 -22 l55 -3 -60 -73 c-33 -41 -60 -80 -60
-88 0 -11 19 -14 85 -14 78 0 85 2 85 20 0 17 -7 20 -50 20 -27 0 -50 3 -50 6
0 3 23 34 50 69 28 35 50 72 50 84 0 20 -5 21 -80 21 -73 0 -80 -2 -80 -20z"/>
<path d="M1599 545 c-15 -8 -34 -31 -44 -51 -24 -50 -8 -107 38 -134 40 -25
73 -25 113 -1 116 71 13 251 -107 186z m91 -45 c41 -41 14 -120 -40 -120 -54
0 -81 79 -40 120 11 11 29 20 40 20 11 0 29 -9 40 -20z"/>
<path d="M1790 450 l0 -110 80 0 c73 0 80 2 80 20 0 18 -7 20 -55 20 l-55 0 0
90 c0 89 0 90 -25 90 l-25 0 0 -110z"/>
<path d="M2029 533 c-20 -51 -69 -187 -69 -190 0 -2 11 -3 24 -3 17 0 26 7 30
25 5 21 12 25 45 25 33 0 40 -4 45 -25 5 -18 13 -25 31 -25 l24 0 -25 68 c-14
37 -32 86 -41 110 -19 50 -48 57 -64 15z m49 -80 c11 -32 10 -33 -20 -33 -23
0 -29 3 -24 16 3 9 9 27 12 41 8 28 17 21 32 -24z"/>
<path d="M2234 551 c-36 -16 -64 -60 -64 -103 0 -52 51 -108 100 -108 56 0
102 35 74 57 -13 9 -19 9 -31 -3 -32 -32 -86 -9 -99 43 -14 53 57 104 95 69
14 -13 20 -14 35 -3 16 12 16 14 -2 30 -23 21 -79 30 -108 18z"/>
<path d="M2400 450 c0 -103 1 -110 20 -110 19 0 20 7 20 110 0 103 -1 110 -20
110 -19 0 -20 -7 -20 -110z"/>
<path d="M2548 473 l-3 -88 -35 -5 c-51 -7 -47 -34 6 -38 63 -5 78 19 82 129
l4 89 -26 0 c-25 0 -25 -1 -28 -87z"/>
<path d="M2640 450 l0 -110 75 0 c68 0 75 2 75 20 0 17 -7 20 -50 20 -47 0
-50 2 -50 25 0 23 4 25 45 25 38 0 45 3 45 20 0 17 -7 20 -45 20 -41 0 -45 2
-45 25 0 23 3 25 50 25 43 0 50 3 50 20 0 18 -7 20 -75 20 l-75 0 0 -110z"/>
<path d="M2900 450 c0 -134 18 -149 22 -17 l3 92 38 -67 c21 -38 42 -68 47
-68 4 0 26 30 47 68 l38 67 6 -95 c6 -102 11 -84 13 48 2 94 -8 103 -42 40
-12 -24 -32 -58 -43 -77 l-21 -34 -44 76 c-25 42 -49 77 -54 77 -6 0 -10 -46
-10 -110z"/>
<path d="M3201 455 c-24 -58 -41 -108 -38 -111 3 -4 13 10 21 30 15 35 16 36
70 36 53 0 55 -1 66 -35 6 -19 16 -35 21 -35 13 0 -72 212 -88 217 -5 2 -28
-44 -52 -102z m99 -32 c0 -2 -20 -3 -45 -3 -53 0 -54 6 -24 75 l21 48 24 -58
c13 -32 24 -60 24 -62z"/>
<path d="M3392 448 c0 -75 3 -98 7 -68 6 44 7 45 41 45 29 0 38 -6 63 -43 35
-51 49 -49 17 3 l-22 36 21 23 c26 28 27 70 1 96 -15 15 -33 20 -75 20 l-55 0
2 -112z m118 82 c24 -24 25 -38 4 -68 -13 -19 -23 -23 -62 -20 -47 3 -47 3
-50 42 -2 21 -1 44 2 52 8 22 82 18 106 -6z"/>
<path d="M3590 450 c0 -67 4 -110 10 -110 6 0 10 17 10 38 0 40 29 80 48 68 5
-3 27 -28 48 -56 21 -27 42 -50 47 -50 4 0 -12 27 -37 59 -25 33 -46 63 -46
68 0 5 18 26 40 48 22 21 37 41 34 44 -3 3 -35 -25 -70 -64 l-63 -70 -1 68 c0
38 -4 67 -10 67 -6 0 -10 -43 -10 -110z"/>
<path d="M3819 545 c-87 -47 -48 -200 51 -200 55 0 90 36 97 99 5 42 3 48 -30
81 -38 38 -73 44 -118 20z m102 -23 c38 -34 44 -88 12 -129 -16 -23 -28 -28
-63 -28 -53 0 -82 32 -82 91 0 30 7 44 31 66 39 35 63 35 102 0z"/>
<path d="M3990 557 c0 -14 91 -212 97 -211 8 2 92 190 93 209 1 22 -20 -15
-50 -90 -18 -44 -36 -84 -40 -88 -4 -5 -25 35 -45 87 -21 53 -42 96 -47 96 -4
0 -8 -1 -8 -3z"/>
<path d="M4220 450 c0 -67 4 -110 10 -110 6 0 10 43 10 110 0 67 -4 110 -10
110 -6 0 -10 -43 -10 -110z"/>
<path d="M4319 531 c-24 -24 -29 -38 -29 -76 0 -40 5 -52 35 -82 31 -31 40
-35 72 -30 34 6 92 47 66 47 -6 0 -16 -7 -23 -15 -7 -8 -29 -15 -49 -15 -40 0
-73 26 -86 68 -10 35 13 90 45 107 38 20 52 19 84 -6 14 -11 26 -16 26 -10 0
18 -44 41 -78 41 -24 0 -42 -9 -63 -29z"/>
</g>
</svg>
